<svg xmlns="http://www.w3.org/2000/svg" viewBox="0 0 400 400" style="enable-background:new 0 0 400 400" xml:space="preserve"><path d="M400 0v400H0V0h400z" style="fill:#4353ff"/><path d="M270.9 167.6s-20.3 63.6-21.8 69c-.6-5.3-15.4-119.6-15.4-119.6-34.6 0-53 24.6-62.8 50.6 0 0-24.7 63.8-26.7 69.1-.1-5-3.8-68.5-3.8-68.5-2.1-31.9-31.2-51.2-54.8-51.2L114 290.1c36.2-.1 55.7-24.6 65.9-50.7 0 0 21.7-56.3 22.6-58.8.2 2.4 15.6 109.5 15.6 109.5 36.3 0 55.9-22.9 66.4-48L335.4 117c-35.9 0-54.8 24.5-64.5 50.6z" style="fill:#fff"/></svg>